# xmcd
#
# Track frame offsets:
#	150
#	23756
#	45395
#	67820
#	90395
#	111750
#	129000
#	157576
#	186825
#	205313
#	254213
#
# Disc length: 3917 seconds
#
# Revision: 2
# Processed by: cddbd v1.5.1PL2 Copyright (c) Steve Scherf et al.
# Submitted via: audiograbber 1.83.01
#
DISCID=820f4b0b
DTITLE=Steve Earle - Kerryville Folk Festival, June11, 1988
DYEAR=1988
DGENRE=Country
TTITLE0=01 - Baby Let Me Follow You Down
TTITLE1=02 - Angry Young Man
TTITLE2=03 - Guitar Town
TTITLE3=04 - Hometown Blues
TTITLE4=05 - My Old Friend The Blues
TTITLE5=06 - Someday
TTITLE6=07 - Copperhead Road
TTITLE7=08 - Nothing But a Child
TTITLE8=09 - I Ain't Never Satisfied
TTITLE9=10 - No. 29
TTITLE10=11 - Nebraska
EXTD=
EXTT0=
EXTT1=
EXTT2=
EXTT3=
EXTT4=
EXTT5=
EXTT6=
EXTT7=
EXTT8=
EXTT9=
EXTT10=
PLAYORDER=
